# xmcd CD database file
#
# Track frame offsets:
#	150
#	17925
#	35244
#	48421
#	60291
#	75318
#	92842
#	110463
#	125857
#	144541
#	159897
#	174000
#	192170
#	211039
#	221329
#	236025
#	252704
#	270044
#	287648
#	305929
#
# Disc length: 4330 seconds
#
# Revision: 2
# Processed by: cddbd v1.5.2PL0 Copyright (c) Steve Scherf et al.
# Submitted via: CDex 1.84
#
DISCID=1710e814
DTITLE=Sara Storer - Calling Me Home - The Best Of Sara Storer [Disc 1]
DYEAR=2010
DGENRE=Country
TTITLE0=Buffalo Bill
TTITLE1=Back Out Back
TTITLE2=Beautiful Circle
TTITLE3=Back In The Territory
TTITLE4=Calling Me Home
TTITLE5=Sitting Here With Fay
TTITLE6=Land Cries Out
TTITLE7=What's So Good?
TTITLE8=Tears
TTITLE9=Billabong
TTITLE10=Sara Storer And John Williamson - Raining On The Plains
TTITLE11=Katherine
TTITLE12=Sara Storer And Kev Carmody - Children Of The Gurindji
TTITLE13=Crow
TTITLE14=Drovers Call
TTITLE15=Long Live The Girls
TTITLE16=Angel
TTITLE17=Tell These Hands
TTITLE18=Man Trap
TTITLE19=Lovely Valentine
EXTD=YEAR: 2010
EXTT0=
EXTT1=
EXTT2=
EXTT3=
EXTT4=
EXTT5=
EXTT6=
EXTT7=
EXTT8=
EXTT9=
EXTT10=
EXTT11=
EXTT12=
EXTT13=
EXTT14=
EXTT15=
EXTT16=
EXTT17=
EXTT18=
EXTT19=
PLAYORDER=
